<?xml version="1.0"?>
<svg xmlns="http://www.w3.org/2000/svg" viewBox="0 0 50 50">
    <path style="line-height:normal;text-indent:0;text-align:start;text-decoration-line:none;text-decoration-style:solid;text-decoration-color:#000;text-transform:none;block-progression:tb;isolation:auto;mix-blend-mode:normal" d="M 25 11 C 17.301223 11 11 17.301223 11 25 C 11 32.605589 16.301223 39 24 39 C 25.083853 39 26.48622 38.684001 27.826172 38.431641 C 25.766076 43.70622 22.21875 45.5 22.21875 45.5 L 20.914062 46.101562 L 24.923828 50.109375 L 25.474609 49.96875 C 25.474609 49.96875 28.97769 49.050649 32.34375 45.457031 C 35.70981 41.863413 39 35.568916 39 25 C 39 17.301223 32.698777 11 25 11 z M 25 13 C 31.609223 13 37 18.390777 37 25 C 37 35.158084 33.903253 40.865212 30.882812 44.089844 C 28.267699 46.88175 26.094209 47.63151 25.466797 47.826172 L 24.142578 46.501953 C 25.508151 45.67123 28.714293 43.434944 30.392578 37.46875 L 30.910156 35.630859 L 29.105469 36.251953 C 28.024188 36.623848 25.315498 37 24 37 C 17.390777 37 13 31.702411 13 25 C 13 18.390777 18.390777 13 25 13 z" font-weight="400" font-family="sans-serif" white-space="normal" overflow="visible"/>
</svg>
